<mxfile host="app.diagrams.net" agent="Mozilla/5.0 (Windows NT 10.0; Win64; x64) AppleWebKit/537.36 (KHTML, like Gecko) Chrome/132.0.0.0 Safari/537.36" version="26.0.11">
  <diagram name="Page-1" id="03018318-947c-dd8e-b7a3-06fadd420f32">
    <mxGraphModel dx="3354" dy="1258" grid="1" gridSize="10" guides="1" tooltips="1" connect="1" arrows="1" fold="1" page="1" pageScale="1" pageWidth="1100" pageHeight="850" background="none" math="0" shadow="0">
      <root>
        <mxCell id="0" />
        <mxCell id="1" parent="0" />
        <mxCell id="677b7b8949515195-1" value="" style="whiteSpace=wrap;html=1;rounded=0;shadow=0;labelBackgroundColor=none;strokeColor=#000000;strokeWidth=1;fillColor=none;fontFamily=Verdana;fontSize=12;fontColor=#000000;align=center;comic=1;" parent="1" vertex="1">
          <mxGeometry x="20" y="40" width="1060" height="790" as="geometry" />
        </mxCell>
        <mxCell id="zX-MKMj06BqSPDNbv460-1" value="&lt;font style=&quot;font-size: 18px;&quot;&gt;companyitassets&lt;/font&gt;&lt;span style=&quot;font-size: 18px; background-color: transparent; color: light-dark(rgb(34, 34, 34), rgb(208, 208, 208));&quot;&gt;/employees(add/edit)&lt;/span&gt;" style="html=1;strokeWidth=1;shadow=0;dashed=0;shape=mxgraph.ios7ui.url;fillColor=#e0e0e0;strokeColor=#c0c0c0;buttonText=;strokeColor2=#222222;fontColor=#222222;fontSize=8;spacingTop=2;align=center;whiteSpace=wrap;" parent="1" vertex="1">
          <mxGeometry x="20" width="1050" height="32.5" as="geometry" />
        </mxCell>
        <mxCell id="hB9AYZY-XfLOqYExoFzZ-1" value="New User" style="text;strokeColor=none;fillColor=none;html=1;fontSize=24;fontStyle=1;verticalAlign=middle;align=center;" parent="1" vertex="1">
          <mxGeometry x="70" y="90" width="120" height="40" as="geometry" />
        </mxCell>
        <mxCell id="hB9AYZY-XfLOqYExoFzZ-2" value="Last Name" style="fillColor=none;strokeColor=none;html=1;fontSize=11;fontStyle=0;align=left;fontColor=#596780;fontStyle=1;fontSize=11" parent="1" vertex="1">
          <mxGeometry x="70" y="250" width="240" height="20" as="geometry" />
        </mxCell>
        <mxCell id="hB9AYZY-XfLOqYExoFzZ-3" value="" style="rounded=1;arcSize=9;fillColor=#F7F8F9;align=left;spacingLeft=5;strokeColor=#DEE1E6;html=1;strokeWidth=2;fontSize=12" parent="1" vertex="1">
          <mxGeometry x="70" y="275" width="290" height="33" as="geometry" />
        </mxCell>
        <mxCell id="hB9AYZY-XfLOqYExoFzZ-4" value="" style="rounded=1;arcSize=9;fillColor=#F7F8F9;align=left;spacingLeft=5;strokeColor=#DEE1E6;html=1;strokeWidth=2;fontSize=12" parent="1" vertex="1">
          <mxGeometry x="70" y="195" width="290" height="33" as="geometry" />
        </mxCell>
        <mxCell id="hB9AYZY-XfLOqYExoFzZ-5" value="First Name" style="fillColor=none;strokeColor=none;html=1;fontSize=11;fontStyle=0;align=left;fontColor=#596780;fontStyle=1;fontSize=11" parent="1" vertex="1">
          <mxGeometry x="70" y="170" width="240" height="20" as="geometry" />
        </mxCell>
        <mxCell id="hB9AYZY-XfLOqYExoFzZ-6" value="Role" style="fillColor=none;strokeColor=none;html=1;fontSize=11;fontStyle=0;align=left;fontColor=#596780;fontStyle=1;fontSize=11" parent="1" vertex="1">
          <mxGeometry x="70" y="410" width="240" height="20" as="geometry" />
        </mxCell>
        <mxCell id="hB9AYZY-XfLOqYExoFzZ-9" value="- SELECT -" style="html=1;shadow=0;dashed=0;shape=mxgraph.bootstrap.rrect;rSize=5;strokeColor=none;strokeWidth=1;fillColor=#6C767D;fontColor=#ffffff;whiteSpace=wrap;align=right;verticalAlign=middle;fontStyle=0;fontSize=14;spacingRight=20;" parent="1" vertex="1">
          <mxGeometry x="70" y="430" width="290" height="30" as="geometry" />
        </mxCell>
        <mxCell id="hB9AYZY-XfLOqYExoFzZ-10" value="" style="shape=triangle;direction=south;fillColor=#ffffff;strokeColor=none;perimeter=none;" parent="hB9AYZY-XfLOqYExoFzZ-9" vertex="1">
          <mxGeometry x="1" y="0.5" width="10" height="5" relative="1" as="geometry">
            <mxPoint x="-17" y="-2.5" as="offset" />
          </mxGeometry>
        </mxCell>
        <mxCell id="hB9AYZY-XfLOqYExoFzZ-11" value="Save" style="rounded=1;fillColor=#0057D8;strokeColor=none;html=1;whiteSpace=wrap;fontColor=#ffffff;align=center;verticalAlign=middle;fontStyle=0;fontSize=12;sketch=0;" parent="1" vertex="1">
          <mxGeometry x="70" y="510" width="86" height="33" as="geometry" />
        </mxCell>
        <mxCell id="hB9AYZY-XfLOqYExoFzZ-12" value="Go Back" style="fillColor=none;strokeColor=none;html=1;fontColor=#0057D8;align=center;verticalAlign=middle;fontStyle=0;fontSize=12" parent="1" vertex="1">
          <mxGeometry x="172" y="510" width="86" height="33" as="geometry" />
        </mxCell>
        <mxCell id="hB9AYZY-XfLOqYExoFzZ-13" value="Only Admins can add or update users.&lt;div&gt;&lt;br&gt;&lt;/div&gt;&lt;div&gt;Usernames are generated as a combination of Last Name + First Name without whitespace, all lower case&lt;/div&gt;&lt;div&gt;&lt;br&gt;&lt;/div&gt;&lt;div&gt;Passwords are generated after the following pattern:&lt;/div&gt;&lt;div&gt;! + (Lastname) + (4 random numbers)&lt;/div&gt;&lt;div&gt;&lt;br&gt;&lt;/div&gt;&lt;div&gt;Example: User with first name &quot;John&quot; and last name &quot;Doe&quot;&lt;/div&gt;&lt;div&gt;&lt;span style=&quot;white-space: pre;&quot;&gt;&#x9;&lt;/span&gt;Username: &quot;doejohn&quot;&lt;br&gt;&lt;/div&gt;&lt;div&gt;&lt;span style=&quot;white-space: pre;&quot;&gt;&#x9;&lt;/span&gt;Password: !Doe5931&lt;br&gt;&lt;/div&gt;&lt;div&gt;&lt;br&gt;&lt;/div&gt;" style="text;html=1;align=left;verticalAlign=top;whiteSpace=wrap;rounded=0;fontColor=light-dark(#000000,#7D7D7D);fontSize=24;" parent="1" vertex="1">
          <mxGeometry x="460" y="150" width="530" height="470" as="geometry" />
        </mxCell>
        <mxCell id="MhtOrNq5LNHC4wdC84GW-1" value="Unassigned" style="html=1;shadow=0;dashed=0;shape=mxgraph.bootstrap.rrect;rSize=5;strokeColor=none;strokeWidth=1;fillColor=#6C767D;fontColor=#ffffff;whiteSpace=wrap;align=right;verticalAlign=middle;fontStyle=0;fontSize=14;spacingRight=20;" vertex="1" parent="1">
          <mxGeometry x="70" y="350" width="290" height="30" as="geometry" />
        </mxCell>
        <mxCell id="MhtOrNq5LNHC4wdC84GW-2" value="" style="shape=triangle;direction=south;fillColor=#ffffff;strokeColor=none;perimeter=none;" vertex="1" parent="MhtOrNq5LNHC4wdC84GW-1">
          <mxGeometry x="1" y="0.5" width="10" height="5" relative="1" as="geometry">
            <mxPoint x="-17" y="-2.5" as="offset" />
          </mxGeometry>
        </mxCell>
        <mxCell id="MhtOrNq5LNHC4wdC84GW-3" value="Department" style="fillColor=none;strokeColor=none;html=1;fontSize=11;fontStyle=0;align=left;fontColor=#596780;fontStyle=1;fontSize=11" vertex="1" parent="1">
          <mxGeometry x="70" y="330" width="240" height="20" as="geometry" />
        </mxCell>
      </root>
    </mxGraphModel>
  </diagram>
</mxfile>
